<svg width="376" height="376" viewBox="0 0 376 376" fill="none" xmlns="http://www.w3.org/2000/svg">
<g filter="url(#filter0_d)">
<path fill-rule="evenodd" clip-rule="evenodd" d="M188 316C260.902 316 320 256.902 320 184C320 111.098 260.902 52 188 52C115.098 52 56 111.098 56 184C56 256.902 115.098 316 188 316Z" fill="#FFA841"/>
</g>
<path fill-rule="evenodd" clip-rule="evenodd" d="M188 311C258.14 311 315 254.14 315 184C315 113.86 258.14 57 188 57C117.86 57 61 113.86 61 184C61 254.14 117.86 311 188 311Z" fill="#2A3F50"/>
<path d="M144.074 192H133.31V173.8H135.468V190.076H144.074V192ZM154.5 190.96C153.98 191.376 153.321 191.705 152.524 191.948C151.744 192.191 150.912 192.312 150.028 192.312C149.04 192.312 148.182 192.156 147.454 191.844C146.726 191.515 146.128 191.055 145.66 190.466C145.192 189.859 144.845 189.14 144.62 188.308C144.394 187.476 144.282 186.54 144.282 185.5C144.282 183.281 144.776 181.591 145.764 180.43C146.752 179.269 148.164 178.688 150.002 178.688C150.591 178.688 151.18 178.757 151.77 178.896C152.359 179.017 152.888 179.26 153.356 179.624C153.824 179.988 154.205 180.508 154.5 181.184C154.794 181.843 154.942 182.718 154.942 183.81C154.942 184.382 154.89 185.015 154.786 185.708H146.44C146.44 186.471 146.518 187.147 146.674 187.736C146.83 188.325 147.072 188.828 147.402 189.244C147.731 189.643 148.156 189.955 148.676 190.18C149.213 190.388 149.863 190.492 150.626 190.492C151.215 190.492 151.804 190.388 152.394 190.18C152.983 189.972 153.425 189.729 153.72 189.452L154.5 190.96ZM150.028 180.508C149.005 180.508 148.182 180.777 147.558 181.314C146.951 181.851 146.587 182.77 146.466 184.07H152.914C152.914 182.753 152.662 181.834 152.16 181.314C151.657 180.777 150.946 180.508 150.028 180.508ZM156.497 179H158.525V176.426L160.605 175.828V179H164.141V180.82H160.605V188.022C160.605 188.923 160.718 189.565 160.943 189.946C161.168 190.31 161.55 190.492 162.087 190.492C162.538 190.492 162.919 190.449 163.231 190.362C163.543 190.258 163.89 190.128 164.271 189.972L164.739 191.558C164.271 191.783 163.76 191.965 163.205 192.104C162.65 192.243 162.052 192.312 161.411 192.312C160.354 192.312 159.608 192.017 159.175 191.428C158.742 190.821 158.525 189.816 158.525 188.412V180.82H156.497V179ZM166.061 174.866C166.061 174.467 166.183 174.155 166.425 173.93C166.685 173.705 167.015 173.592 167.413 173.592C167.899 173.592 168.289 173.748 168.583 174.06C168.895 174.355 169.051 174.805 169.051 175.412C169.051 175.984 168.965 176.478 168.791 176.894C168.635 177.31 168.436 177.665 168.193 177.96C167.968 178.237 167.725 178.463 167.465 178.636C167.205 178.809 166.98 178.931 166.789 179L166.139 178.116C166.538 177.908 166.85 177.648 167.075 177.336C167.301 177.024 167.413 176.617 167.413 176.114C167.344 176.131 167.249 176.14 167.127 176.14C166.798 176.14 166.538 176.027 166.347 175.802C166.157 175.559 166.061 175.247 166.061 174.866ZM176.197 188.464C176.197 187.944 176.041 187.537 175.729 187.242C175.417 186.947 175.027 186.705 174.559 186.514C174.108 186.306 173.605 186.115 173.051 185.942C172.513 185.751 172.011 185.517 171.543 185.24C171.092 184.945 170.711 184.573 170.399 184.122C170.087 183.671 169.931 183.065 169.931 182.302C169.931 181.054 170.286 180.144 170.997 179.572C171.707 178.983 172.695 178.688 173.961 178.688C174.897 178.688 175.677 178.775 176.301 178.948C176.942 179.104 177.497 179.295 177.965 179.52L177.471 181.236C177.072 181.045 176.587 180.881 176.015 180.742C175.46 180.586 174.862 180.508 174.221 180.508C173.458 180.508 172.895 180.638 172.531 180.898C172.184 181.158 172.011 181.609 172.011 182.25C172.011 182.701 172.167 183.056 172.479 183.316C172.791 183.559 173.172 183.784 173.623 183.992C174.091 184.183 174.593 184.373 175.131 184.564C175.685 184.755 176.188 185.006 176.639 185.318C177.107 185.63 177.497 186.029 177.809 186.514C178.121 186.982 178.277 187.606 178.277 188.386C178.277 188.941 178.181 189.461 177.991 189.946C177.817 190.431 177.54 190.847 177.159 191.194C176.777 191.541 176.301 191.809 175.729 192C175.174 192.208 174.515 192.312 173.753 192.312C172.765 192.312 171.924 192.217 171.231 192.026C170.537 191.835 169.957 191.61 169.489 191.35L170.113 189.582C170.511 189.807 171.031 190.015 171.673 190.206C172.314 190.397 172.964 190.492 173.623 190.492C174.368 190.492 174.983 190.345 175.469 190.05C175.954 189.755 176.197 189.227 176.197 188.464ZM198.336 187.528C198.336 188.412 198.344 189.218 198.362 189.946C198.379 190.657 198.457 191.359 198.596 192.052H197.192L196.672 190.206H196.568C196.221 190.813 195.718 191.315 195.06 191.714C194.401 192.113 193.63 192.312 192.746 192.312C191.012 192.312 189.721 191.766 188.872 190.674C188.04 189.582 187.624 187.875 187.624 185.552C187.624 183.333 188.144 181.652 189.184 180.508C190.241 179.347 191.688 178.766 193.526 178.766C194.167 178.766 194.67 178.801 195.034 178.87C195.415 178.939 195.822 179.052 196.256 179.208V173.8H198.336V187.528ZM193.084 190.492C193.968 190.492 194.67 190.267 195.19 189.816C195.71 189.348 196.065 188.646 196.256 187.71V181.262C195.944 181.019 195.588 180.846 195.19 180.742C194.791 180.638 194.262 180.586 193.604 180.586C192.408 180.586 191.472 180.985 190.796 181.782C190.12 182.562 189.782 183.819 189.782 185.552C189.782 186.263 189.834 186.921 189.938 187.528C190.059 188.135 190.25 188.655 190.51 189.088C190.77 189.521 191.108 189.868 191.524 190.128C191.957 190.371 192.477 190.492 193.084 190.492ZM201.614 185.5C201.614 183.299 202.099 181.617 203.07 180.456C204.058 179.277 205.471 178.688 207.308 178.688C208.279 178.688 209.119 178.853 209.83 179.182C210.558 179.494 211.156 179.953 211.624 180.56C212.092 181.149 212.439 181.869 212.664 182.718C212.889 183.55 213.002 184.477 213.002 185.5C213.002 187.701 212.508 189.391 211.52 190.57C210.549 191.731 209.145 192.312 207.308 192.312C206.337 192.312 205.488 192.156 204.76 191.844C204.049 191.515 203.46 191.055 202.992 190.466C202.524 189.859 202.177 189.14 201.952 188.308C201.727 187.459 201.614 186.523 201.614 185.5ZM203.772 185.5C203.772 186.159 203.833 186.791 203.954 187.398C204.093 188.005 204.301 188.533 204.578 188.984C204.855 189.435 205.219 189.799 205.67 190.076C206.121 190.353 206.667 190.492 207.308 190.492C209.665 190.509 210.844 188.845 210.844 185.5C210.844 184.824 210.775 184.183 210.636 183.576C210.515 182.969 210.315 182.441 210.038 181.99C209.761 181.539 209.397 181.184 208.946 180.924C208.495 180.647 207.949 180.508 207.308 180.508C204.951 180.491 203.772 182.155 203.772 185.5ZM223.655 179H225.735V192H223.655V179ZM223.213 175.048C223.213 174.649 223.343 174.311 223.603 174.034C223.88 173.739 224.227 173.592 224.643 173.592C225.059 173.592 225.414 173.739 225.709 174.034C226.004 174.311 226.151 174.649 226.151 175.048C226.151 175.447 226.004 175.776 225.709 176.036C225.414 176.296 225.059 176.426 224.643 176.426C224.227 176.426 223.88 176.296 223.603 176.036C223.343 175.776 223.213 175.447 223.213 175.048ZM228.454 179H230.482V176.426L232.562 175.828V179H236.098V180.82H232.562V188.022C232.562 188.923 232.675 189.565 232.9 189.946C233.125 190.31 233.507 190.492 234.044 190.492C234.495 190.492 234.876 190.449 235.188 190.362C235.5 190.258 235.847 190.128 236.228 189.972L236.696 191.558C236.228 191.783 235.717 191.965 235.162 192.104C234.607 192.243 234.009 192.312 233.368 192.312C232.311 192.312 231.565 192.017 231.132 191.428C230.699 190.821 230.482 189.816 230.482 188.412V180.82H228.454V179ZM240.281 173.8H242.439V182.822L241.997 187.398H240.723L240.281 182.822V173.8ZM239.839 190.804C239.839 190.336 239.969 189.972 240.229 189.712C240.506 189.435 240.87 189.296 241.321 189.296C241.789 189.296 242.161 189.435 242.439 189.712C242.716 189.972 242.855 190.336 242.855 190.804C242.855 191.255 242.716 191.619 242.439 191.896C242.161 192.173 241.789 192.312 241.321 192.312C240.87 192.312 240.506 192.173 240.229 191.896C239.969 191.619 239.839 191.255 239.839 190.804Z" fill="white"/>
<defs>
<filter id="filter0_d" x="0" y="0" width="376" height="376" filterUnits="userSpaceOnUse" color-interpolation-filters="sRGB">
<feFlood flood-opacity="0" result="BackgroundImageFix"/>
<feColorMatrix in="SourceAlpha" type="matrix" values="0 0 0 0 0 0 0 0 0 0 0 0 0 0 0 0 0 0 127 0"/>
<feOffset dy="4"/>
<feGaussianBlur stdDeviation="28"/>
<feColorMatrix type="matrix" values="0 0 0 0 0.0823529 0 0 0 0 0.168627 0 0 0 0 0.231373 0 0 0 0.6 0"/>
<feBlend mode="normal" in2="BackgroundImageFix" result="effect1_dropShadow"/>
<feBlend mode="normal" in="SourceGraphic" in2="effect1_dropShadow" result="shape"/>
</filter>
</defs>
</svg>
